<?xml version="1.0" encoding="utf-8"?>
<!-- Generator: Adobe Illustrator 23.1.0, SVG Export Plug-In . SVG Version: 6.00 Build 0)  -->
<svg version="1.1" id="Layer_1" xmlns="http://www.w3.org/2000/svg" xmlns:xlink="http://www.w3.org/1999/xlink" x="0px" y="0px"
	 viewBox="0 0 576 512" style="enable-background:new 0 0 576 512;" xml:space="preserve">
<style type="text/css">
	.st0{fill:#F5F5F5;}
</style>
<path class="st0" d="M463.1,416c-26.5,0-47.1,21.5-47.1,48s21.5,48,47.1,48s47.1-21.5,47.1-48S490.5,416,463.1,416z M175.1,416
	c-26.5,0-47.1,21.5-47.1,48s21.5,48,47.1,48s47.1-21.5,47.1-48S202.5,416,175.1,416z M569.5,44.7c-6.1-8.1-15.4-12.7-25.6-12.7
	H121.1l-1.5-12.5C117.4,8.2,107.5,0,96,0H23.1C10.8,0,0,10.8,0,23.1S10.8,48,23.1,48h52.1l60.3,316.5c3.1,11.3,13,19.5,24.5,19.5
	h328c13.3,0,24-10.8,24-23.1c0-14.2-10.7-24.9-24-24.9H179.9l-9.2-48h318.4c14.3,0,26.8-9.5,30.8-23.2l54.9-191.1
	C577.5,63,575.6,52.8,569.5,44.7z"/>
</svg>
