<?xml version="1.0" encoding="utf-8"?>
<!-- Generator: Adobe Illustrator 23.1.0, SVG Export Plug-In . SVG Version: 6.00 Build 0)  -->
<svg version="1.1" id="Layer_1" xmlns="http://www.w3.org/2000/svg" xmlns:xlink="http://www.w3.org/1999/xlink" x="0px" y="0px"
	 viewBox="0 0 448 512" style="enable-background:new 0 0 448 512;" xml:space="preserve">
<style type="text/css">
	.st0{fill:#F5F5F5;}
</style>
<path class="st0" d="M416,224H31.1C14.3,224,0,238.3,0,256s14.3,32,31.1,32h384c18.6,0,32.9-14.3,32.9-32S433.7,224,416,224z
	 M416,384H31.1C14.3,384,0,398.3,0,415.1S14.3,448,31.1,448h384c18.6,0,32.9-14.3,32.9-32S433.7,384,416,384z M416,64H31.1
	C14.3,64,0,78.3,0,95.1S14.3,128,31.1,128h384c18.6,0,32.9-14.3,32.9-32S433.7,64,416,64z"/>
</svg>
